:SAMPLES-PER-SECOND 30
:FULLY-SPECIFIED
:DEGREES
475
root  49.6482 35.7706 3.7735 -174.812 82.6389 -165.555
RightUpLeg  -24.3184 -10.9976 -2.73782
RightLeg  32.9564 7.0623 4.65352
RightFoot  2.49672 0.0178655 0.00639493
RightToes  5.23868e-010 0 -3.6325e-017
Spine  19.9228 -5.54966 15.5589
Spine1  13.9543 -0.379002 -7.44193
HEad  -10.9885 -5.24474 -2.75763
LeftShoulder1  1.73057 -4.39399 -15.0985
LeftArm  -19.3638 -59.872 -39.8527
LeftForeArm  -4.67027 -22.3358 -4.95266
LeftHand  -0.034971 4.69203 1.87604
RightShoulder  0.442431 0.36214 3.4164
RightArm  -24.0785 67.2069 17.553
RightForeArm  -26.8237 9.9384 3.25017
RightHand  -0.366534 0.608709 -7.22715
LeftUpLeg  -15.2604 1.41497 5.18037
LeftLeg  72.5762 0.414673 2.38623
LeftFoot  -0.692453 0.0583601 -0.448435
LeftToes  -4.9204e-010 1.02043e-011 -1.81609e-011
476
root  50.4467 36.0613 4.06206 -177.135 83.0218 -168.611
RightUpLeg  -23.6994 -10.3487 -2.5819
RightLeg  32.9039 6.736 4.4221
RightFoot  1.34011 0.0627371 -0.482236
RightToes  5.23868e-010 0 -3.6325e-017
Spine  21.6145 -5.45249 15.6236
Spine1  13.1692 0.135876 -8.83089
HEad  -12.4517 -5.42352 -1.82045
LeftShoulder1  1.70272 -4.94718 -13.137
LeftArm  -21.6236 -61.5722 -38.3469
LeftForeArm  -6.90996 -20.7355 -4.55863
LeftHand  -0.0329565 4.98207 2.28744
RightShoulder  0.484641 0.635422 3.74607
RightArm  -27.6492 68.1677 13.8768
RightForeArm  -28.9699 7.71588 2.9557
RightHand  -0.336021 -0.680702 -8.21963
LeftUpLeg  -20.1084 3.20959 4.34479
LeftLeg  73.2686 -0.198471 0.338269
LeftFoot  -1.87395 0.110424 -1.20931
LeftToes  -4.9204e-010 1.02043e-011 -1.81609e-011
477
root  51.1662 36.3843 4.24344 -179.967 83.4483 -172.592
RightUpLeg  -23.351 -10.3211 -2.53898
RightLeg  32.2316 6.96812 4.46402
RightFoot  0.899511 0.14078 -1.25262
RightToes  5.23868e-010 0 -3.6325e-017
Spine  22.7481 -5.10578 15.4867
Spine1  13.0085 0.494665 -8.97025
HEad  -13.6626 -4.89351 -2.06312
LeftShoulder1  1.7324 -5.32063 -12.5712
LeftArm  -23.2038 -63.0677 -36.6461
LeftForeArm  -9.17526 -19.9483 -4.32574
LeftHand  -0.0296594 5.13703 2.02927
RightShoulder  0.47947 1.05809 2.36498
RightArm  -31.3204 68.2732 11.3757
RightForeArm  -28.8032 5.81251 2.08854
RightHand  -0.33935 -0.336817 -7.79328
LeftUpLeg  -24.4487 4.89511 2.85806
LeftLeg  70.1748 -0.737367 -1.45284
LeftFoot  -3.09749 0.142578 -1.70441
LeftToes  -4.9204e-010 1.02043e-011 -1.81609e-011
478
root  51.8266 36.7695 4.38509 178.483 84.2057 -175.347
RightUpLeg  -22.645 -9.76525 -2.36598
RightLeg  30.4407 7.22941 4.32733
RightFoot  0.829613 0.172457 -1.5632
RightToes  5.23868e-010 0 -3.6325e-017
Spine  23.9786 -4.91543 15.5835
Spine1  12.5656 0.95203 -9.92801
HEad  -15.0326 -4.96884 -1.44379
LeftShoulder1  1.66974 -5.56818 -11.2311
LeftArm  -25.5731 -64.5416 -34.901
LeftForeArm  -9.80818 -18.6842 -3.70473
LeftHand  -0.0313416 4.72423 1.11186
RightShoulder  0.48645 1.3966 1.68704
RightArm  -35.026 68.7261 8.67626
RightForeArm  -27.0545 3.97203 1.27444
RightHand  -0.254281 0.746717 -4.93668
LeftUpLeg  -27.3965 6.38954 1.33805
LeftLeg  63.2029 -0.789304 -1.11688
LeftFoot  -3.98928 0.111753 -1.37418
LeftToes  -4.9204e-010 1.02043e-011 -1.81609e-011
479
root  52.4828 37.1589 4.50192 177.195 85.1167 -178.316
RightUpLeg  -22.3427 -9.36436 -2.05451
RightLeg  28.2991 7.67274 4.21643
RightFoot  1.08281 0.203096 -1.79546
RightToes  5.23868e-010 0 -3.6325e-017
Spine  24.6013 -4.42911 15.9602
Spine1  12.2252 1.87843 -11.3956
HEad  -16.4571 -5.48719 -0.766622
LeftShoulder1  1.65841 -6.27684 -9.60613
LeftArm  -27.3038 -65.8817 -33.0047
LeftForeArm  -10.1311 -17.6791 -3.18206
LeftHand  -0.028723 5.2502 0.768849
RightShoulder  0.480018 1.40101 1.53886
RightArm  -38.3713 68.9316 5.11513
RightForeArm  -26.2835 2.10905 0.813386
RightHand  -0.241085 2.87049 -3.62858
LeftUpLeg  -29.1886 7.21005 0.113356
LeftLeg  52.8993 -1.04493 -0.987418
LeftFoot  -4.20377 0.141509 -1.88695
LeftToes  -4.9204e-010 1.02043e-011 -1.81609e-011
480
root  53.0869 37.48 4.59618 177.221 85.8802 -179.443
RightUpLeg  -21.6765 -9.74241 -1.66181
RightLeg  26.435 8.6496 4.4267
RightFoot  1.32473 0.244546 -2.12069
RightToes  5.23868e-010 0 -3.6325e-017
Spine  26.0455 -4.0884 15.318
Spine1  11.0233 2.14757 -11.5934
HEad  -18.2486 -5.53041 -0.128525
LeftShoulder1  1.63205 -6.6957 -8.53601
LeftArm  -28.5341 -66.6041 -30.2354
LeftForeArm  -11.2479 -16.6956 -2.85925
LeftHand  -0.030238 5.92026 0.344072
RightShoulder  0.499128 1.98158 0.75624
RightArm  -40.1032 69.0992 3.48053
RightForeArm  -25.6895 0.410476 0.441357
RightHand  -0.188277 4.17298 -2.54429
LeftUpLeg  -28.7578 6.94401 -0.313057
LeftLeg  39.9358 -3.01559 -2.22173
LeftFoot  -3.22937 0.310224 -4.02865
LeftToes  -4.9204e-010 1.02043e-011 -1.81609e-011
481
root  53.6707 37.6419 4.58573 -173.785 87.0148 -171.851
RightUpLeg  -21.8216 -8.83521 -0.899966
RightLeg  25.3547 8.84772 4.32105
RightFoot  1.12469 0.237551 -2.10628
RightToes  5.23868e-010 0 -3.6325e-017
Spine  26.7409 -3.66846 15.2011
Spine1  10.3101 2.46269 -11.4759
HEad  -19.5253 -4.61206 -0.632816
LeftShoulder1  1.62164 -6.93336 -8.02568
LeftArm  -31.1066 -67.4107 -27.0799
LeftForeArm  -11.3705 -15.6083 -2.23217
LeftHand  -0.0390615 6.37424 -0.398027
RightShoulder  0.490425 2.52504 -0.359182
RightArm  -41.5906 69.3448 2.6392
RightForeArm  -26.6971 -0.804585 0.0805137
RightHand  -0.223357 3.55121 -3.15022
LeftUpLeg  -27.6276 5.54751 0.453948
LeftLeg  27.1245 -6.538 -3.36066
LeftFoot  0.0820409 0.790911 -7.7305
LeftToes  -4.9204e-010 1.02043e-011 -1.81609e-011
482
root  54.2476 37.6993 4.54704 -142.658 88.3526 -141.695
RightUpLeg  -22.0905 -7.36616 -0.24309
RightLeg  25.3288 8.84055 4.31215
RightFoot  0.513842 0.267206 -2.53622
RightToes  5.23868e-010 0 -3.6325e-017
Spine  27.4566 -3.30177 15.3504
Spine1  9.90679 3.26038 -12.6225
HEad  -20.8153 -4.4071 -0.216468
LeftShoulder1  1.54191 -7.39104 -6.47483
LeftArm  -33.7078 -67.8915 -23.7416
LeftForeArm  -11.6993 -14.5707 -1.60324
LeftHand  -0.0580388 6.75714 -1.65103
RightShoulder  0.508079 3.12381 -0.887886
RightArm  -43.2474 69.3244 1.797
RightForeArm  -27.8387 -2.04158 -0.399706
RightHand  -0.185755 2.71238 -2.88156
LeftUpLeg  -26.127 3.68379 1.58529
LeftLeg  18.2326 -8.37289 -2.75539
LeftFoot  6.62901 1.09981 -7.53155
LeftToes  -4.9204e-010 1.02043e-011 -1.81609e-011
483
root  54.7561 37.7114 4.47352 -61.5214 88.258 -61.0263
RightUpLeg  -22.2101 -4.49162 0.424617
RightLeg  25.6977 8.25819 4.08579
RightFoot  0.0054691 0.254482 -2.56066
RightToes  5.23868e-010 0 -3.6325e-017
Spine  28.6784 -2.93548 15.235
Spine1  9.53915 4.29964 -14.0222
HEad  -22.3147 -3.62189 -0.00957973
LeftShoulder1  1.42927 -7.79756 -4.76329
LeftArm  -36.1614 -68.0637 -20.7585
LeftForeArm  -12.3249 -13.3177 -0.770134
LeftHand  -0.0791757 6.8479 -3.00317
RightShoulder  0.519149 3.62327 -1.33387
RightArm  -44.9766 69.5636 0.798544
RightForeArm  -29.1898 -2.89837 -0.747732
RightHand  -0.0910646 1.29897 -1.68285
LeftUpLeg  -25.1454 4.85813 2.05294
LeftLeg  15.7243 -9.94438 -2.8773
LeftFoot  10.9932 0.172524 -1.06263
LeftToes  -4.9204e-010 1.02043e-011 -1.81609e-011
484
root  55.2368 37.7468 4.35552 -25.2166 86.2112 -25.8612
RightUpLeg  -23.0579 -1.45937 0.660142
RightLeg  25.9322 7.62236 3.79521
RightFoot  -0.337152 0.231182 -2.41433
RightToes  5.23868e-010 0 -3.6325e-017
Spine  29.1297 -2.21839 13.4969
Spine1  9.68181 4.90988 -13.9872
HEad  -24.1213 -1.55305 -0.704611
LeftShoulder1  1.30543 -7.56186 -3.81835
LeftArm  -39.168 -67.6992 -16.7515
LeftForeArm  -15.0688 -12.6523 -0.270974
LeftHand  -0.116711 7.35149 -4.15547
RightShoulder  0.486814 3.78457 -1.99822
RightArm  -48.2349 70.5507 0.36446
RightForeArm  -27.7627 -2.60087 -1.64108
RightHand  0.0804084 1.24832 1.27547
LeftUpLeg  -25.3754 6.50941 2.18744
LeftLeg  16.1637 -8.86087 -2.63879
LeftFoot  9.88292 -0.491965 2.29309
LeftToes  -4.9204e-010 1.02043e-011 -1.81609e-011
485
root  55.6241 37.6734 4.26608 -21.9717 85.1781 -23.8455
RightUpLeg  -24.4479 0.620471 0.580651
RightLeg  27.0695 6.69797 3.48172
RightFoot  -1.55198 0.142714 -1.79017
RightToes  5.23868e-010 0 -3.6325e-017
Spine  29.7977 -1.67131 11.3922
Spine1  8.98329 4.46179 -12.3178
HEad  -24.9402 -0.144724 -1.24443
LeftShoulder1  1.31763 -7.29992 -4.27344
LeftArm  -42.7889 -67.3821 -11.8749
LeftForeArm  -16.4442 -12.7378 -0.170709
LeftHand  -0.150261 7.65021 -5.20264
RightShoulder  0.403569 4.19352 -3.6774
RightArm  -49.2588 70.9085 -0.421332
RightForeArm  -29.779 -2.44104 -1.54587
RightHand  0.168657 1.48699 2.71388
LeftUpLeg  -27.4199 8.22242 1.98838
LeftLeg  18.746 -9.29765 -3.17754
LeftFoot  9.24001 -0.510883 2.50039
LeftToes  -4.9204e-010 1.02043e-011 -1.81609e-011
486
root  55.9882 37.6474 4.16115 -22.6319 85.0112 -24.9686
RightUpLeg  -24.7361 1.62749 0.384061
RightLeg  27.8166 5.99188 3.19294
RightFoot  -2.51124 0.0930136 -1.42819
RightToes  5.23868e-010 0 -3.6325e-017
Spine  30.8942 -1.88419 10.6613
Spine1  8.44526 4.02253 -12.4077
HEad  -25.5509 0.606375 -0.899987
LeftShoulder1  1.23295 -7.86255 -2.72784
LeftArm  -45.2473 -66.0951 -9.23293
LeftForeArm  -18.0397 -13.779 -0.348823
LeftHand  -0.132701 7.3845 -4.97608
RightShoulder  0.417133 4.01093 -3.31488
RightArm  -50.2084 71.1365 -1.8069
RightForeArm  -32.7969 -1.70502 -1.15242
RightHand  0.159776 1.84612 2.40447
LeftUpLeg  -28.2152 9.00757 1.8532
LeftLeg  20.54 -10.0915 -3.83199
LeftFoot  8.41512 -0.515703 2.66817
LeftToes  -4.9204e-010 1.02043e-011 -1.81609e-011
